<svg xmlns="http://www.w3.org/2000/svg" class="w-20 h-20 fill-current text-gray-500" xml:space="preserve" id="Layer_1" x="0" y="0" style="enable-background:new 0 0 1080 1080" version="1.1" viewBox="0 0 1080 1080"><style>.st0{fill:#fff}</style><g id="XMLID_00000093892235200076816670000000910976603122358966_"><path d="M544.99 62.86c269.8.72 477.1 220.77 475.11 478.51 0 263.4-213.54 477.16-476.96 476.63-259.48-.55-475.86-206.25-476.33-475.89-.46-272.75 216.22-479.94 478.18-479.25zm458.36 478.29c1.13-251.83-199.95-459.71-456.92-461.17C287.61 78.49 83.38 283.82 83.8 540.62c.44 262.07 209.06 459.51 459.62 460.37 253.96.86 459.73-205.64 459.93-459.84z" class="st0"></path><path d="M943.68 532.59c0 32.61-4.45 58.67-7.65 84.87-1.44 11.51-6.82 17.78-19.58 16.95-12.09-.77-24.32.5-36.42-.3-16.68-1.1-31.67 1.63-44.37 13.36-3.04 2.79-7.07 7.23-11.43 4.94-5.27-2.76-2.93-8.95-2.68-13.58 5.94-111.41-20.1-216.19-67.53-316.08-24.19-51-55.74-97.46-96.17-137.47-1.93-1.93-3.92-3.92-5.55-6.1-3.34-4.45-6.96-9.17-3.2-14.94 3.48-5.33 9.11-5.88 14.8-5.08 21.09 3.01 40.31 11.82 58.78 21.54 110.14 57.95 180.62 147.38 210.64 267.98 7.35 29.44 9.34 59.72 10.36 83.91zM909.22 690.41c-12.56 40.23-33.79 74.6-60.16 105.91-7.1 8.42-14.55 16.51-21.81 24.77-5.66 6.43-11.18 7.95-18.14 1.27-10.71-10.3-21.89-20.1-33.08-29.9-7.37-6.49-6.6-11.54 1.52-16.79 43.96-28.33 87.8-56.82 131.67-85.26z" class="st0"></path><path d="M800.11 563.71c9.11.64 13.8 4.89 13.67 13.2-.17 8.45-5.52 12.7-13.42 12.59-7.62-.11-12.09-5.16-12.34-12.65-.28-8.39 5.1-12.18 12.09-13.14zM797.93 614.95c13.58 50.66 13.61 50.83-28.49 82.5-26.86 20.21-53.92 40.23-80.92 60.27-.83.61-2.02.66-6.46 2.04 6.07-31.48 11.46-61.1 17.62-90.53 7.34-35.01 7.65-34.95-27.22-34.95-15.46 0-30.95.47-46.38-.14-12.78-.47-18.97 4.47-21.09 17.42-7.37 45.09-15.96 89.98-23.3 135.1-2.37 14.52-8.48 22.01-23.88 19.55-2.15-.33-4.42-.06-6.63-.08-37.38-.28-38.18-2.48-42.08-40.2-3.92-37.99-2.02-75.9-2.82-113.86-.28-13.97 4.72-20.74 20.07-21.59 69.88-3.92 140.2-4.78 208.15-24.93 10.57-3.15 21.04-6.74 31.75-9.39 18.45-4.62 26.79.54 31.68 18.79zM780.67 544.13c2.93 22.92-1.79 30.4-24.21 34.95-24.3 4.91-48.81 8.31-73.75 9.14-51.8 1.68-103.45.99-155.14-2.68-14.55-1.05-18.91-8.39-18.06-21.59 2.65-40.03 4.5-80.12 7.81-120.1 1.74-20.85 8.53-26.51 31.89-27.17 22.72-.64 45.03-3.73 67.37-7.32 14.74-2.35 29.13-5.91 42.27-15.02-31.31-.77-62.48 2.57-93.82 1.88-39.23-.91-43.21-5.08-37.8-43.65 5.44-38.65 10.33-77.39 15.49-116.07.58-4.36 1.05-8.78 2.02-13.06 4.25-19.05 13.28-23.08 29.05-10.88 15.63 12.09 29.63 26.26 44.4 39.48 70.76 63.39 109.47 146.61 144.35 232.17 7.89 19.36 15.43 38.94 18.13 59.92zM732.66 876.8c6.49 6.6 7.43 11.02-2.15 15.9-19.69 9.99-40.14 18.03-60.74 25.79-8.23 3.09-14.69 3.04-13.03-4.83 4.97-30.65 9.28-57.21 13.58-83.74 1.63-10.08 5.22-12.62 13.17-4.17 16.17 17.2 32.6 34.21 49.17 51.05zM588.87 139.34c.17 23.14-21.26 44.65-44.53 44.7-23.97.06-45-21.31-44.95-45.61.06-25.46 18.33-43.49 43.96-43.4 26.52.08 45.35 18.44 45.52 44.31zM558.3 815.04c13.94-1.93 18 .91 15.19 15.21-5.96 30.23-11.04 60.63-15.71 91.09-1.93 12.76-7.73 17.56-20.79 17.23-92.82-2.26-174.41-34.15-246.58-91.61-16.84-13.42-32.69-27.91-46.66-44.29-3.7-4.33-10.11-9.61-6.27-15.71 4.17-6.65 11.15-1.82 16.51-.03 70.3 23.58 142.63 33.21 216.57 32.64 33.02-.25 33.6.44 43.13 32.77.72 2.51 1.85 4.89 3.75 9.8-.75-41.88-.69-41.36 40.86-47.1z" class="st0"></path><path d="M509.21 807.75c5.6.39 8.48 3.01 8.39 8.12-.11 5.16-3.4 7.79-8.23 7.7-4.69-.06-7.43-3.15-7.59-7.76-.16-5.13 3.12-7.48 7.43-8.06zM493.03 384.1c12.37.11 19.44 8.14 19.22 20.16-.25 12.09-8.14 19.55-20.1 19.63-12.48.06-18.33-8.26-19.13-20.74.91-12.03 7.92-19.13 20.01-19.05zM485.47 584.39c13.78.94 20.87 7.37 20.62 19.93-.22 12.73-8.31 19.16-20.24 19-11.54-.17-18.25-7.79-18.64-19.08-.41-12.68 7.71-18.39 18.26-19.85zM495.35 778.62c3.73 16.35-1.3 22.61-15.9 20.46-96.08-14.25-189.65-36.2-272.01-91.31-31.64-21.15-49.48-50.91-55.91-87.94-3.98-22.78-7.65-45.58-6.43-68.83.25-4.86-.44-10.63 5.16-12.92 4.86-1.96 8.09 2.4 11.57 4.91 15.24 11.02 31.28 20.71 48.84 27.58 11.71 4.61 16.43 12.62 17.53 25.13 2.57 29.32 3.45 58.95 11.76 92.11 3.26-30.51-.72-56.85 3.67-82.94 2.48-14.8 8.59-18.72 22.36-14.58 60.41 18.11 122.04 29.82 184.99 34.46 12.81.94 19.96 7.65 21.89 20.49 6.69 44.59 12.4 89.32 22.48 133.38zM485.33 205.22c7.37 4.5 2.43 12.07 1.35 18.11-8.14 46.52-14.36 93.29-20.02 140.15-1.49 12.48-6.74 21.07-21.48 19.47-32.58-5.11-64.47-13.31-95.12-26.09-10.33-4.33-10.88-12.09-5.69-20.16 32.47-50.42 71.62-94.56 122.53-127.28 5.4-3.46 12.11-8.04 18.43-4.2zM466.31 562.68c.52 15.19-7.1 21.23-21.67 18.97-40.34-6.27-80.62-12.92-119.94-24.21-15.88-4.56-31.64-9.66-47.16-15.35-13.5-4.94-18.03-14.58-13.94-28.94 10.11-35.62 24.24-69.58 40.28-102.87 5.52-11.49 13.86-15.46 25.46-12.42 38.99 10.27 78.5 17.7 118.56 22.5 12.92 1.55 14.91 11.49 15.1 21.98.66 36.28-1.66 72.64 3.29 108.81-.01 3.83-.12 7.7.02 11.53zM446.65 160.74c3.34 6.82-3.75 11.18-8.26 14.41-36.03 25.82-68.58 55.16-94.56 91.25-11.57 16.04-22.36 32.69-33.82 48.81-10.63 14.88-17.62 15.43-30.32 2.37-12.07-12.4-20.98-26.73-24.66-41.58-.33-8.26 2.68-12.78 6.68-16.76 47.77-47.52 104.17-80.65 168.61-100.17 5.39-1.59 12.82-5.59 16.33 1.67zM306.61 343.99c12.81 1.16 19.77 8.39 19.49 20.35-.25 12.26-8.39 19.05-20.49 18.91-12.51-.14-19.6-8.12-19.24-20.04.36-12.05 8.39-18.37 20.24-19.22zM262.74 371.13c9.06 5.16 12.84 11.13 8.64 21.48-13.5 33.16-22.78 67.64-31.83 102.24-5.85 22.47-13.34 25.4-32.72 13.47-15.08-9.25-28.94-20.07-39.21-34.82-5.77-8.31-9.86-17.17-9.47-27.69 2.68-28.96 14.58-54.94 27.17-80.62 4.83-9.83 10.22-19.52 16.21-28.69 5.19-7.87 11.98-10.02 18.25-.72 10.85 16.05 26.69 26.04 42.96 35.35z" class="st0"></path><path d="M240.43 533.28c12.01 1.05 19.02 9.19 18.39 21.12-.69 12.51-9.44 18.25-21.45 17.67-12.76-.64-17.67-9.22-18.66-20.57 2.34-12.31 9.57-19.27 21.72-18.22z" class="st0"></path></g></svg>